<?xml version="1.0" encoding="UTF-8"?>
<svg xmlns="http://www.w3.org/2000/svg" viewBox="0 0 1280 1280">
  <defs>
    <style>
      .text {
        font-family: Bahnschrift-Bold, Bahnschrift;
        font-size: 192px;
        font-variation-settings: 'wght' 700, 'wdth' 100;
        font-weight: 700;
      }
    </style>
  </defs>
  <g>
    <path d="M836.19,1181.72c-61.23,22.18-127.3,34.28-196.19,34.28-318.12,0-576-257.88-576-576,0-174.43,77.53-330.74,200-436.35v112.88c-74.79,86.84-120,199.88-120,323.47,0,273.93,222.07,496,496,496,43.95,0,86.56-5.72,127.14-16.45l69.05,62.17Z"/>
    <path d="M1216,640c0,176.82-79.68,335.04-205.08,440.69l-60.11-54.13c112.93-90.92,185.19-230.3,185.19-386.56,0-273.93-222.07-496-496-496-65.01,0-127.1,12.51-184,35.25v-85.24c57.78-19.46,119.66-30.01,184-30.01,318.12,0,576,257.88,576,576Z"/>
  </g>
  <polygon points="408 848 488 908 232 908 312 848 312 112 232 52 488 52 408 112 408 848"/>
  <polygon points="920.53 1228 954.2 1202.73 408 702.23 408 648.69 409.79 646.73 408 645.7 596.44 319.32 554.7 288 725.3 288 660.23 336.82 467.77 670.19 1010.47 1167.48 1091.13 1228 920.53 1228"/>
  <path d="M1080.71,635c0,150.77-122.23,273-273,273-11.99,0-23.8-.78-35.38-2.29-.25-.03-.49-.06-.74-.1-6.01-.78-11.95-1.77-17.83-2.95-10.85-2.17-21.47-4.99-31.81-8.41l-36.94-49.25v-106.67l72.97,97.3h.01c15.77,5.45,32.46,8.37,49.72,8.37,87.06,0,159.44-74.22,174.24-172h-157.54l-39.99,53.3v-170.6l39.99,53.3h158.84c-11.22-102.68-85.54-182-175.54-182-18.18,0-35.72,3.24-52.22,9.25l-70.48,93.97v-106.67l34.48-45.97c11.62-3.97,23.6-7.18,35.87-9.56,5.36-1.04,10.77-1.92,16.23-2.64,11.82-1.57,23.88-2.38,36.12-2.38,150.77,0,273,122.23,273,273Z"/>
  <g>
    <text class="text" transform="translate(31.17 1234.21) scale(.94 1)"><tspan x="0" y="0">20</tspan></text>
    <text class="text" transform="translate(1058.82 210.08) scale(.91 1)"><tspan x="0" y="0">25</tspan></text>
  </g>
</svg>